<svg width="76" height="77" viewBox="0 0 76 77" fill="none" xmlns="http://www.w3.org/2000/svg">
    <path fill-rule="evenodd" clip-rule="evenodd" d="M48.8525 7.64226C48.2146 7.16245 48.2933 6.79202 47.2911 6.14812C44.345 4.25744 40.7841 5.9455 40.3108 9.6125C40.0167 11.8873 41.8843 14.4082 44.0267 14.4567C43.8221 15.3591 42.2269 17.435 41.5345 18.5053C40.9354 19.4313 39.2336 21.6129 39 22.5104C40.3217 23.419 41.5248 24.3824 42.8998 25.3197C44.3027 26.2768 45.4937 27.1581 46.842 28.0854C47.3468 21.8627 55.6899 22.181 55.6899 28.2918C55.6899 30.0805 54.2846 31.878 52.8745 32.2161C53.3054 32.8774 54.0571 33.2056 54.6841 33.663C55.3595 34.1552 55.9888 34.6264 56.6969 35.1074L60.7178 38L64.66 32.3429C65.1345 31.6082 65.506 31.034 65.9454 30.359C66.5276 30.7978 66.1233 30.5976 66.6426 31.0886C69.9881 34.2572 74.3914 31.2975 74.3914 27.8803C74.3914 25.6702 72.7356 23.5048 70.7712 23.337L76 15.4896C74.8441 14.6941 68.8273 10.633 68.3589 9.91331C69.1989 9.68335 69.8779 8.86791 70.235 8.12208C71.3848 5.71927 70.5061 1.44567 65.7457 1.44567C63.7171 1.44567 61.881 3.4246 61.7236 5.36997L57.9339 2.65391C57.2101 2.102 54.586 0.169055 53.8816 0C53.6758 0.790579 49.6319 6.44894 48.8537 7.64102L48.8525 7.64226Z" fill="#4137EE"/>
    <path fill-rule="evenodd" clip-rule="evenodd" d="M6.77377 43.2512L16.1699 43.264C14.0682 49.2797 21.3043 52.2543 24.1198 47.9967C25.16 46.423 25.052 45.1809 24.5542 43.2947L33.9752 43.2448L33.9615 43.0822L34 33.2968C30.7091 34.9243 27.4281 32.5157 27.3797 29.2543C27.3288 25.8521 30.6991 23.3654 33.9988 24.9993V15H24.7181C24.7429 16.123 25.0992 16.114 24.8199 17.4355C24.6411 18.2806 24.3966 18.7467 23.9882 19.3536C22.563 21.4741 18.6874 22.0823 16.7496 19.3895C15.6696 17.8888 15.893 17.0039 16.0557 15H6.77501V24.7854C4.6721 24.2796 4.05885 24.0056 2.16324 25.135C-0.473477 26.7061 -0.906723 30.9983 2.02172 33.0932C4.00671 34.5119 5.47652 33.8205 6.77501 33.508V43.2486L6.77377 43.2512Z" fill="#FF6668"/>
    <path fill-rule="evenodd" clip-rule="evenodd" d="M34 42.9789L34.0138 43.1342L34.0614 52.7005C37.5451 51.0802 41.1904 52.9891 41.1228 56.5867C41.089 58.4234 39.987 59.793 38.7961 60.4264C36.8639 61.456 35.8596 60.9877 34.0263 60.3616L34.0326 70H44.0243C40.6495 63.7709 48.9744 60.3653 51.7231 65.1233C52.7537 66.9074 52.3843 68.3932 51.514 70H61.5007V60.8581C62.7993 60.8862 63.8249 61.6113 66.0765 60.2466C68.3531 58.8673 68.9316 54.8368 66.0289 52.7788C64.8468 51.9411 63.0297 51.6085 61.5007 52.3239V42.9789H51.7219C54.825 37.2512 46.8068 33.409 43.8152 38.1023C42.8547 39.6088 42.9762 41.4296 43.8164 42.9789H34Z" fill="#FFC8C9"/>
    <path fill-rule="evenodd" clip-rule="evenodd" d="M34.0216 70.4085L34.0154 60.5754C35.8183 61.2141 36.8067 61.6919 38.7094 60.6415C39.8814 59.994 40.9646 58.598 40.9991 56.7242C41.0656 53.0539 37.4783 51.1065 34.0499 52.7595L34.0031 43L24.6508 43.0487C25.145 44.8863 25.251 46.0964 24.2195 47.6296C21.4258 51.7777 14.2412 48.8797 16.3276 43.0187L7 43.0062V52.792C10.3051 51.0217 13.9763 53.1213 13.9714 56.7317C13.9689 58.4533 12.8068 59.9653 11.6521 60.6103C9.97364 61.5484 8.42952 61.2266 7 60.4606V70.4097H16.213C15.6732 72.7563 15.8408 74.9021 18.1367 76.3393C20.2711 77.6754 22.7555 76.8408 24.1456 75.1242C25.3828 73.5947 24.9823 72.4694 24.8123 70.411H34.0216V70.4085Z" fill="#FBB91C"/>
</svg>
